<?xml version="1.0" encoding="UTF-8"?>
<!DOCTYPE svg PUBLIC "-//W3C//DTD SVG 1.1//EN" "http://www.w3.org/Graphics/SVG/1.1/DTD/svg11.dtd">
<!-- Creator: CorelDRAW 2018 (64-Bit) -->
<svg xmlns="http://www.w3.org/2000/svg" xml:space="preserve" width="134px" height="134px" version="1.1" style="shape-rendering:geometricPrecision; text-rendering:geometricPrecision; image-rendering:optimizeQuality; fill-rule:evenodd; clip-rule:evenodd"
viewBox="0 0 134 134"
 xmlns:xlink="http://www.w3.org/1999/xlink">
 <defs>
  <style type="text/css">
   <![CDATA[
    .str0 {stroke:black;stroke-width:0.9;stroke-miterlimit:22.9256;stroke-opacity:0.000000}
    .fil0 {fill:none}
    .fil3 {fill:#173861}
    .fil2 {fill:#209C6A}
    .fil5 {fill:#969799}
    .fil4 {fill:#C42027}
    .fil1 {fill:black;fill-rule:nonzero}
   ]]>
  </style>
 </defs>
 <g id="Layer_x0020_1">
  <metadata id="CorelCorpID_0Corel-Layer"/>
  <path class="fil0 str0" d="M67 0c37,0 67,30 67,67 0,37 -30,67 -67,67 -37,0 -67,-30 -67,-67 0,-37 30,-67 67,-67z"/>
  <path class="fil1" d="M10.76 50.05l-0.97 5.96 5.82 0.95 -0.51 3.1 -14.22 -2.32 1.6 -9.8 2.38 0.38 -1.1 6.71 3.67 0.59 0.97 -5.95 2.36 0.38zm7.14 -8.66l-2.31 5 2.24 2.19 -1.4 3.04 -10.7 -11.21 1.23 -2.64 15.48 0.86 -1.41 3.04 -3.13 -0.28zm-4.14 3.22l1.6 -3.47 -5.71 -0.52 4.11 3.99zm9.64 -7.14l-10.93 -9.4 3.49 -4.05c1.21,-1.41 2.38,-2.26 3.51,-2.54 1.13,-0.29 2.19,-0.02 3.17,0.83 0.54,0.46 0.88,1.01 1.04,1.66 0.16,0.64 0.11,1.3 -0.15,1.98 0.65,-0.47 1.33,-0.69 2.05,-0.67 0.72,0.02 1.39,0.3 2,0.83 1.05,0.9 1.54,1.94 1.47,3.11 -0.07,1.18 -0.66,2.43 -1.78,3.75l-3.87 4.5zm-2.7 -6.47l2.94 2.52 1.75 -2.04c0.48,-0.56 0.74,-1.11 0.76,-1.64 0.02,-0.53 -0.2,-0.99 -0.64,-1.37 -1,-0.85 -1.97,-0.74 -2.93,0.34l-1.88 2.19zm-1.6 -1.38l1.52 -1.76c1.01,-1.22 1.08,-2.21 0.19,-2.97 -0.49,-0.43 -0.98,-0.58 -1.46,-0.46 -0.48,0.11 -1,0.5 -1.56,1.16l-1.44 1.67 2.75 2.36zm19.28 -9.3l5.83 -3.25 1.16 2.09 -8.58 4.77 -7.01 -12.59 2.75 -1.53 5.85 10.51zm16.25 -7.33l-5.29 1.55 -0.17 3.13 -3.21 0.94 1.4 -15.42 2.79 -0.82 9.54 12.22 -3.21 0.94 -1.85 -2.54zm-5.15 -1.01l3.66 -1.07 -3.36 -4.64 -0.3 5.71zm11.74 2.76l-0.17 -14.41 5.35 -0.07c1.85,-0.02 3.26,0.3 4.23,0.96 0.96,0.66 1.45,1.64 1.47,2.93 0.01,0.71 -0.18,1.34 -0.56,1.88 -0.38,0.54 -0.9,0.94 -1.59,1.2 0.79,0.18 1.41,0.54 1.86,1.1 0.46,0.55 0.69,1.23 0.7,2.04 0.02,1.39 -0.44,2.44 -1.36,3.17 -0.93,0.72 -2.26,1.1 -4,1.13l-5.93 0.07zm3.07 -6.3l0.05 3.87 2.69 -0.03c0.74,-0.01 1.32,-0.18 1.73,-0.52 0.41,-0.33 0.61,-0.8 0.61,-1.38 -0.02,-1.31 -0.75,-1.97 -2.19,-1.98l-2.89 0.04zm-0.02 -2.11l2.33 -0.03c1.58,-0.04 2.37,-0.64 2.36,-1.81 -0.01,-0.66 -0.22,-1.12 -0.62,-1.41 -0.41,-0.28 -1.04,-0.41 -1.91,-0.4l-2.2 0.02 0.04 3.63zm19.92 8.64l7.19 2.73 -0.85 2.24 -10.87 -4.12 0.62 -1.64 10.69 -6.91 -7.04 -2.67 0.85 -2.26 10.71 4.06 -0.61 1.6 -10.69 6.97zm19.2 5.89l-5.01 -3.37 -2.16 3.22 5.89 3.95 -1.33 1.98 -8.5 -5.69 8.03 -11.97 8.47 5.68 -1.34 2 -5.87 -3.93 -1.9 2.85 5.01 3.36 -1.29 1.92zm6.62 7.77l-1.63 -1.9 -4 3.43 -2.05 -2.39 10.95 -9.37 3.69 4.31c1.17,1.36 1.79,2.67 1.85,3.91 0.06,1.23 -0.44,2.3 -1.49,3.2 -0.75,0.64 -1.52,1 -2.31,1.09 -0.8,0.08 -1.64,-0.09 -2.53,-0.53l-2.32 6.33 -0.1 0.09 -2.2 -2.56 2.14 -5.61zm0.2 -3.47l1.65 1.93c0.52,0.6 1.06,0.94 1.63,1.03 0.57,0.08 1.11,-0.1 1.61,-0.53 0.52,-0.44 0.79,-0.94 0.82,-1.51 0.03,-0.56 -0.23,-1.16 -0.78,-1.81l-1.65 -1.92 -3.28 2.81zm12.82 20.98c-1.25,0.67 -2.47,1.03 -3.66,1.07 -1.2,0.04 -2.28,-0.23 -3.27,-0.82 -0.98,-0.6 -1.78,-1.45 -2.38,-2.58 -0.61,-1.11 -0.89,-2.24 -0.86,-3.38 0.03,-1.15 0.39,-2.22 1.07,-3.21 0.67,-0.98 1.62,-1.81 2.84,-2.48l0.62 -0.34c1.25,-0.67 2.48,-1.03 3.69,-1.07 1.2,-0.04 2.3,0.24 3.28,0.83 0.98,0.6 1.77,1.46 2.37,2.57 0.61,1.12 0.89,2.25 0.86,3.4 -0.04,1.14 -0.4,2.21 -1.09,3.2 -0.69,0.99 -1.66,1.83 -2.9,2.5l-0.57 0.31zm-0.94 -3.12c1.33,-0.72 2.2,-1.52 2.62,-2.4 0.42,-0.88 0.37,-1.78 -0.13,-2.72 -0.5,-0.93 -1.23,-1.45 -2.19,-1.59 -0.96,-0.13 -2.1,0.15 -3.42,0.86l-0.62 0.34c-1.29,0.7 -2.16,1.5 -2.6,2.39 -0.44,0.89 -0.41,1.81 0.11,2.75 0.5,0.93 1.23,1.46 2.19,1.58 0.95,0.13 2.09,-0.16 3.42,-0.87l0.62 -0.34zm4.76 19.23c0.69,-0.01 1.24,0.22 1.66,0.68 0.42,0.45 0.64,1.05 0.64,1.77 0.01,0.76 -0.18,1.36 -0.59,1.82 -0.4,0.45 -0.94,0.69 -1.6,0.71l-0.43 0.01c-0.68,0 -1.23,-0.22 -1.64,-0.67 -0.42,-0.46 -0.63,-1.05 -0.64,-1.79 -0.01,-0.74 0.19,-1.34 0.59,-1.81 0.41,-0.47 0.96,-0.71 1.66,-0.71l0.35 -0.01zm-7.52 14.16l-1.2 5.29 -0.72 -0.17 1.4 -6.2 10.11 2.29 -0.2 0.91 -9.39 -2.12zm-3.68 9.53c0.25,-0.66 0.62,-1.18 1.12,-1.59 0.5,-0.41 1.07,-0.66 1.73,-0.75 0.65,-0.08 1.31,0 1.98,0.25l0.28 0.11c0.7,0.26 1.27,0.64 1.71,1.14 0.45,0.49 0.74,1.05 0.86,1.68 0.13,0.63 0.08,1.24 -0.15,1.83 -0.35,0.93 -0.93,1.55 -1.73,1.87 -0.8,0.31 -1.72,0.27 -2.76,-0.12l-0.44 -0.17 2.06 -5.44 -0.15 -0.06c-0.82,-0.31 -1.6,-0.32 -2.33,-0.03 -0.73,0.29 -1.24,0.81 -1.52,1.56 -0.18,0.45 -0.25,0.88 -0.22,1.29 0.02,0.4 0.15,0.81 0.39,1.22l-0.58 0.39c-0.61,-0.94 -0.7,-2.01 -0.25,-3.18zm6.85 2.41c0.24,-0.63 0.22,-1.25 -0.05,-1.85 -0.27,-0.6 -0.76,-1.09 -1.47,-1.46l-1.73 4.57 0.08 0.04c0.7,0.23 1.35,0.24 1.93,0.01 0.58,-0.23 1,-0.67 1.24,-1.31zm-11.12 6.57c0.26,0.03 0.6,0.15 1.03,0.36 -0.19,-0.46 -0.26,-0.96 -0.22,-1.5 0.05,-0.53 0.21,-1.04 0.47,-1.52 0.37,-0.68 0.85,-1.15 1.45,-1.37 0.6,-0.23 1.17,-0.2 1.73,0.1 0.65,0.36 1.02,0.94 1.09,1.72 0.07,0.79 -0.18,1.71 -0.74,2.75l-0.79 1.44 0.77 0.41c0.49,0.27 0.96,0.32 1.41,0.15 0.45,-0.16 0.84,-0.55 1.16,-1.16 0.3,-0.55 0.42,-1.08 0.35,-1.58 -0.07,-0.51 -0.29,-0.86 -0.67,-1.07l0.44 -0.79c0.54,0.29 0.86,0.81 0.96,1.55 0.11,0.74 -0.05,1.5 -0.47,2.28 -0.43,0.8 -0.96,1.32 -1.59,1.58 -0.63,0.26 -1.29,0.21 -1.97,-0.15l-3.2 -1.73c-0.66,-0.36 -1.19,-0.55 -1.59,-0.58l-0.08 -0.04 0.46 -0.85zm1.88 -2.21c-0.29,0.53 -0.42,1.07 -0.41,1.62 0.02,0.55 0.18,1.03 0.48,1.44l1.5 0.81 0.77 -1.42c0.42,-0.79 0.62,-1.48 0.59,-2.08 -0.02,-0.59 -0.27,-1.01 -0.73,-1.26 -0.38,-0.21 -0.78,-0.23 -1.19,-0.07 -0.41,0.16 -0.75,0.48 -1.01,0.96zm-0.59 12.12c0.15,-0.13 0.29,-0.27 0.43,-0.44 0.35,-0.44 0.54,-0.9 0.55,-1.39 0.02,-0.49 -0.14,-0.98 -0.48,-1.46l-4.11 -3.34 0.57 -0.69 5.98 4.85 -0.56 0.68 -0.95 -0.76c0.4,0.95 0.27,1.83 -0.39,2.65 -0.16,0.2 -0.31,0.33 -0.45,0.41l-0.59 -0.51zm-1.31 2.62l-0.98 -0.88c0.14,0.55 0.14,1.07 0.01,1.58 -0.14,0.5 -0.39,0.95 -0.77,1.35 -0.6,0.64 -1.22,0.96 -1.85,0.95 -0.63,-0.01 -1.29,-0.33 -1.97,-0.97l-3.68 -3.46 0.62 -0.66 3.68 3.47c0.51,0.47 0.99,0.71 1.44,0.72 0.45,0.01 0.91,-0.23 1.37,-0.71 0.38,-0.41 0.6,-0.88 0.66,-1.42 0.05,-0.54 -0.06,-1.08 -0.32,-1.61l-3.84 -3.62 0.62 -0.65 5.6 5.28 -0.59 0.63zm-11.91 0.6l0.72 -0.54 4.66 6.13 -0.72 0.54 -4.66 -6.13zm6.86 7.26c0.09,0.13 0.13,0.27 0.11,0.43 -0.02,0.15 -0.11,0.29 -0.26,0.4 -0.15,0.12 -0.31,0.17 -0.46,0.15 -0.16,-0.02 -0.29,-0.1 -0.39,-0.22 -0.09,-0.13 -0.13,-0.27 -0.11,-0.43 0.03,-0.15 0.12,-0.29 0.27,-0.4 0.15,-0.12 0.3,-0.17 0.46,-0.15 0.15,0.02 0.28,0.09 0.38,0.22zm-5.39 1.3l-0.72 -1.1c-0.01,0.57 -0.14,1.08 -0.4,1.53 -0.25,0.46 -0.61,0.83 -1.08,1.12 -0.75,0.47 -1.42,0.61 -2.03,0.45 -0.61,-0.17 -1.16,-0.65 -1.66,-1.43l-2.68 -4.29 0.76 -0.47 2.68 4.28c0.37,0.59 0.78,0.94 1.21,1.06 0.44,0.13 0.94,0.01 1.51,-0.34 0.47,-0.3 0.8,-0.7 0.99,-1.21 0.19,-0.51 0.22,-1.05 0.1,-1.64l-2.8 -4.47 0.76 -0.47 4.09 6.52 -0.73 0.46zm-8.71 0.77c0.49,1.1 0.62,2.09 0.4,2.97 -0.23,0.87 -0.78,1.51 -1.67,1.91 -1.01,0.46 -1.95,0.42 -2.82,-0.1l0.41 1.03 -0.77 0.34 -3.1 -6.87c-0.41,-0.9 -0.46,-1.74 -0.16,-2.51 0.29,-0.77 0.9,-1.36 1.82,-1.77 0.52,-0.24 1.06,-0.35 1.63,-0.35 0.57,0.01 1.07,0.13 1.5,0.37l-0.25 0.68c-0.88,-0.41 -1.73,-0.44 -2.53,-0.08 -0.69,0.31 -1.14,0.75 -1.35,1.3 -0.21,0.56 -0.17,1.18 0.12,1.87l0.4 0.88c0.21,-0.94 0.82,-1.63 1.83,-2.08 0.86,-0.39 1.7,-0.38 2.52,0.04 0.81,0.41 1.47,1.16 1.97,2.27l0.05 0.1zm-0.9 0.24c-0.4,-0.89 -0.91,-1.51 -1.53,-1.86 -0.61,-0.34 -1.26,-0.36 -1.96,-0.05 -1.01,0.46 -1.53,1.21 -1.57,2.26l1.47 3.26c0.4,0.36 0.83,0.58 1.3,0.65 0.47,0.08 0.96,0 1.47,-0.23 0.69,-0.32 1.11,-0.81 1.27,-1.5 0.15,-0.68 0,-1.53 -0.45,-2.53zm-14.3 2.61l-0.23 -0.64 -0.08 0.72 -1.11 6.11 -0.76 0.11 -2.74 -5.52 -0.32 -0.77 -0.07 0.76 -0.83 6.09 -0.93 0.13 1.27 -7.96 0.77 -0.11 2.93 5.75 0.15 0.41 0.04 -0.44 1.19 -6.33 0.76 -0.11 3.42 7.3 -0.92 0.13 -2.54 -5.63zm-11.27 5.6c-0.33,0.43 -0.74,0.76 -1.22,0.98 -0.48,0.21 -0.99,0.3 -1.54,0.26 -0.87,-0.07 -1.5,-0.35 -1.89,-0.84 -0.39,-0.5 -0.56,-1.21 -0.49,-2.14l0.38 -5.04 0.89 0.07 -0.38 5.04c-0.04,0.69 0.07,1.21 0.35,1.57 0.28,0.36 0.75,0.56 1.42,0.61 0.55,0.05 1.06,-0.08 1.51,-0.38 0.45,-0.3 0.81,-0.71 1.05,-1.26l0.4 -5.25 0.89 0.06 -0.82 10.91 -0.89 -0.07 0.34 -4.52zm-8.05 -7.32l0.89 0.15 -1.24 7.6 -0.89 -0.15 1.24 -7.6zm-0.55 9.97c-0.02,0.16 -0.1,0.28 -0.23,0.38 -0.12,0.09 -0.28,0.12 -0.47,0.09 -0.19,-0.03 -0.33,-0.11 -0.43,-0.24 -0.09,-0.13 -0.12,-0.27 -0.1,-0.43 0.03,-0.16 0.11,-0.28 0.24,-0.37 0.12,-0.09 0.28,-0.12 0.47,-0.09 0.19,0.03 0.33,0.11 0.42,0.24 0.09,0.12 0.13,0.26 0.1,0.42zm-2.85 -10.66l0.89 0.2 -2.41 10.67 -0.88 -0.2 2.4 -10.67zm-5.3 -1.81c0.66,0.22 1.19,0.58 1.62,1.07 0.42,0.49 0.68,1.06 0.79,1.71 0.1,0.64 0.04,1.31 -0.19,1.98l-0.11 0.29c-0.24,0.7 -0.6,1.28 -1.09,1.74 -0.48,0.46 -1.03,0.77 -1.65,0.91 -0.63,0.14 -1.24,0.11 -1.84,-0.1 -0.93,-0.33 -1.57,-0.88 -1.91,-1.68 -0.34,-0.79 -0.33,-1.71 0.04,-2.76l0.16 -0.45 5.49 1.91 0.05 -0.15c0.29,-0.83 0.28,-1.6 -0.03,-2.33 -0.31,-0.72 -0.84,-1.22 -1.6,-1.48 -0.46,-0.16 -0.89,-0.22 -1.29,-0.18 -0.41,0.03 -0.81,0.17 -1.21,0.42l-0.41 -0.57c0.93,-0.64 1.99,-0.75 3.18,-0.33zm-2.23 6.91c0.64,0.22 1.26,0.19 1.85,-0.1 0.6,-0.29 1.07,-0.79 1.43,-1.51l-4.63 -1.61 -0.03 0.09c-0.22,0.71 -0.2,1.35 0.04,1.93 0.25,0.57 0.7,0.98 1.34,1.2zm-7.53 -6.82c-0.67,1 -1.44,1.63 -2.3,1.9 -0.87,0.28 -1.7,0.15 -2.51,-0.39 -0.91,-0.62 -1.38,-1.43 -1.4,-2.43l-2.41 3.59 -0.75 -0.5 6.09 -9.08 0.71 0.47 -0.54 0.87c0.91,-0.33 1.83,-0.18 2.76,0.45 0.79,0.52 1.22,1.24 1.3,2.15 0.08,0.92 -0.22,1.88 -0.9,2.89l-0.05 0.08zm-0.68 -0.63c0.55,-0.82 0.81,-1.58 0.78,-2.28 -0.04,-0.7 -0.37,-1.27 -1,-1.69 -0.92,-0.62 -1.83,-0.67 -2.74,-0.16l-2.01 3c-0.17,1.09 0.2,1.94 1.12,2.56 0.63,0.42 1.28,0.51 1.94,0.28 0.66,-0.23 1.3,-0.8 1.91,-1.71zm-6.9 -4.44c-0.51,0.54 -1.08,0.92 -1.71,1.14 -0.62,0.23 -1.25,0.27 -1.88,0.13 -0.63,-0.14 -1.2,-0.46 -1.72,-0.94 -0.79,-0.74 -1.18,-1.61 -1.18,-2.59 0,-0.99 0.41,-1.92 1.23,-2.78l0.12 -0.13c0.51,-0.54 1.08,-0.92 1.71,-1.15 0.63,-0.22 1.26,-0.27 1.88,-0.12 0.63,0.14 1.2,0.46 1.71,0.95 0.79,0.74 1.18,1.6 1.18,2.59 0,0.99 -0.41,1.91 -1.22,2.78l-0.12 0.12zm-0.5 -0.79c0.64,-0.67 0.97,-1.4 1.01,-2.18 0.04,-0.77 -0.24,-1.44 -0.84,-2.01 -0.59,-0.55 -1.27,-0.79 -2.05,-0.71 -0.77,0.09 -1.49,0.48 -2.15,1.19l-0.11 0.11c-0.41,0.43 -0.7,0.91 -0.86,1.42 -0.17,0.52 -0.19,1.01 -0.07,1.5 0.11,0.48 0.37,0.9 0.76,1.27 0.59,0.55 1.27,0.79 2.05,0.7 0.78,-0.08 1.5,-0.48 2.16,-1.18l0.1 -0.11zm-3.97 -9.25l0.58 0.68 -5.84 5.01 -0.59 -0.69 5.85 -5zm-6.85 7.26c-0.12,0.1 -0.26,0.15 -0.42,0.14 -0.15,-0.01 -0.29,-0.09 -0.42,-0.24 -0.12,-0.14 -0.18,-0.3 -0.17,-0.45 0.01,-0.16 0.08,-0.29 0.2,-0.4 0.12,-0.1 0.26,-0.15 0.41,-0.13 0.16,0.02 0.3,0.1 0.43,0.24 0.12,0.15 0.18,0.3 0.17,0.45 -0.01,0.16 -0.08,0.29 -0.2,0.39zm-1.38 -5.28l1.03 -0.81c-0.56,0.04 -1.08,-0.05 -1.55,-0.27 -0.47,-0.22 -0.87,-0.55 -1.2,-1 -0.52,-0.7 -0.72,-1.36 -0.61,-1.98 0.12,-0.62 0.55,-1.21 1.3,-1.77l4.06 -3.01 0.53 0.72 -4.06 3.01c-0.55,0.42 -0.87,0.85 -0.96,1.29 -0.09,0.45 0.07,0.94 0.47,1.48 0.33,0.44 0.75,0.74 1.28,0.89 0.52,0.15 1.06,0.14 1.63,-0.03l4.24 -3.14 0.54 0.72 -6.19 4.59 -0.51 -0.69zm-1.52 -8.97c-1.1,0.49 -2.09,0.63 -2.97,0.4 -0.87,-0.23 -1.51,-0.78 -1.91,-1.66 -0.46,-1.02 -0.42,-1.96 0.1,-2.83l-1.03 0.41 -0.34 -0.77 6.87 -3.1c0.9,-0.4 1.74,-0.46 2.51,-0.16 0.77,0.3 1.36,0.9 1.77,1.82 0.24,0.52 0.35,1.06 0.34,1.63 0,0.57 -0.12,1.07 -0.36,1.5l-0.68 -0.25c0.41,-0.88 0.44,-1.73 0.08,-2.53 -0.31,-0.69 -0.75,-1.14 -1.3,-1.35 -0.56,-0.21 -1.18,-0.17 -1.86,0.12l-0.89 0.4c0.93,0.21 1.63,0.82 2.08,1.83 0.39,0.86 0.38,1.7 -0.04,2.52 -0.41,0.81 -1.17,1.47 -2.27,1.97l-0.1 0.05zm-0.24 -0.9c0.89,-0.4 1.51,-0.91 1.86,-1.53 0.34,-0.61 0.36,-1.26 0.05,-1.96 -0.46,-1.01 -1.21,-1.53 -2.26,-1.57l-3.26 1.47c-0.36,0.4 -0.58,0.83 -0.65,1.3 -0.08,0.47 0,0.96 0.23,1.47 0.31,0.69 0.81,1.11 1.5,1.27 0.68,0.15 1.53,0 2.53,-0.45zm-8.76 -13.03c-0.68,0.11 -1.26,-0.03 -1.75,-0.41 -0.48,-0.39 -0.78,-0.95 -0.9,-1.66 -0.12,-0.75 -0.01,-1.37 0.32,-1.89 0.33,-0.51 0.82,-0.82 1.48,-0.94l0.42 -0.07c0.67,-0.11 1.24,0.03 1.72,0.41 0.48,0.39 0.78,0.94 0.9,1.68 0.12,0.72 0.01,1.35 -0.32,1.87 -0.32,0.53 -0.83,0.84 -1.53,0.96l-0.34 0.05z"/>
  <g id="_2314739836000">
   <path class="fil2" d="M37.36 65.82c0,4.78 0.64,8.85 2.59,13.06 0.85,1.83 1.24,2.45 2.2,4.03 0.16,0.27 0.2,0.29 0.37,0.55l1.52 2.05c1.1,1.4 2.2,2.48 3.5,3.64l1.43 1.23c4.61,3.67 11.2,6.03 17.05,6.03 0,-3.91 0.33,-2.87 -1.41,-3.9 -0.52,-0.31 -1.02,-0.59 -1.52,-0.87l-3.11 -1.74 0 -6.87c4.23,-2.23 4.11,-7.81 2.35,-11.32 -0.66,-1.33 -1.21,-2.5 -2.2,-3.67 -0.5,-0.58 -0.88,-0.97 -1.41,-1.51 -2.06,-2.08 -5.7,-3.53 -8.63,-2.18 -2.02,0.94 -2.93,3.61 -2.93,5.77 0,0.68 0.12,1.24 0.17,1.84 0.16,1.69 0.7,3.34 1.53,4.7 1.94,3.21 1.78,2.43 1.78,7.38 0,0.48 -0.51,0.08 -0.75,-0.07l-6.31 -3.59 0 -25.92 -2.03 -1.26c-0.25,-0.17 -0.46,-0.25 -0.71,-0.39l-0.55 1.47c-0.21,0.51 -0.38,0.97 -0.59,1.51 -0.41,1.02 -0.77,2 -1.14,2.99 -0.17,0.44 -0.35,1.08 -0.47,1.54 -0.15,0.55 -0.28,1.1 -0.41,1.7 -0.05,0.29 -0.08,0.68 -0.11,0.89l-0.21 2.91z"/>
   <path class="fil3" d="M90.47 54.37l0 8.42c-0.38,0.09 -3.03,1.67 -3.48,1.92 -0.39,0.23 -0.79,0.44 -1.18,0.65 -2.54,-1.7 -3.28,-2.18 -6.59,-1.09 -0.73,0.24 -1.34,0.6 -1.93,1 -1.74,1.15 -3.15,2.79 -4.22,4.57 -1.92,3.21 -3.19,8.1 -0.82,11.46 0.41,0.57 0.76,0.95 1.4,1.34 2.46,1.51 5.46,0.34 7.63,-1.11l1.75 -1.45c1.4,-1.4 2.39,-2.91 3.13,-4.75 0.92,-2.31 0.67,-1.59 3.26,-3.15 0.3,-0.19 0.76,-0.51 1.05,-0.59l0 8.79c-2.14,1.13 -6.19,3.51 -8.38,4.8l-8.48 4.89c-0.08,0.04 -5.31,3.14 -5.66,3.22l0 3.12c3.78,0 6.01,-0.69 9.21,-1.78 0.92,-0.31 1.7,-0.7 2.51,-1.06 1.65,-0.74 3.07,-1.56 4.52,-2.53l2.47 -1.84c1.75,-1.47 1.13,-1.09 2.24,-2.25 0.28,-0.3 0.53,-0.61 0.79,-0.95 0.78,-0.99 1.61,-1.96 2.26,-3.05 0.64,-1.08 1.4,-2.25 1.91,-3.4 3,-6.75 3.55,-13.32 1.74,-20.51 -0.58,-2.32 -1.18,-4.12 -2.47,-6.05 -0.24,0.13 -0.39,0.25 -0.64,0.37 -0.52,0.27 -1.65,0.93 -2.02,1.01z"/>
   <path class="fil4" d="M42.03 51.25c1.95,1.31 2.02,1.98 4.39,0.55 0.97,-0.58 4.66,-2.93 5.32,-2.93 0.2,0 2.73,1.64 3.68,2.09 0.29,0.14 0.29,0.13 0.53,0.29l-0.09 1.38c0,1.32 0.48,2.59 1,3.39 0.34,0.5 0.61,0.74 1.03,1.17 0.38,0.37 0.82,0.61 1.3,0.89 2.63,1.58 5.85,2.28 8.98,1.83 0.75,-0.11 1.21,-0.18 1.86,-0.34 1,-0.25 2.33,-0.69 3.19,-1.21 1.77,-1.07 3.79,-2.82 3.79,-5.09 0,-1.44 -0.23,-2.34 -1.13,-3.53l-1.32 -1.35c-2.33,-2.09 -6.33,-2.82 -9.36,-2.63 -1.04,0.07 -2.32,0.71 -3.31,0.1 -0.35,-0.21 -2.14,-1.37 -2.28,-1.57 0.25,-0.06 0.61,-0.33 0.88,-0.49 0.34,-0.21 0.57,-0.36 0.9,-0.57 0.34,-0.2 0.59,-0.33 0.92,-0.55 0.33,-0.22 0.55,-0.36 0.89,-0.57 0.74,-0.44 2.95,-2.03 3.83,-2.03 1.01,0 2.39,1.13 3.39,1.74l6.11 3.6c1.95,1.09 4.22,2.53 6.13,3.58 1.06,0.58 2.01,1.19 3.08,1.77l2.39 1.18c0.26,0.16 0.55,0.37 0.79,0.49 0.96,0.48 2.63,-0.42 3.2,-1.28 -0.4,-1.72 -3.86,-5.13 -5.57,-6.51l-4.22 -3.11c-3.26,-1.93 -6.77,-3.3 -10.72,-3.85 -0.67,-0.09 -1.51,-0.2 -2.2,-0.26 -0.38,-0.03 -0.8,0.02 -1.18,-0.01 -0.82,-0.07 -2.67,-0.07 -3.45,0.05 -2.89,0.42 -2.81,0.18 -6.2,1.13 -2.2,0.61 -4.83,1.72 -6.79,2.91 -3.74,2.27 -6.33,4.79 -8.87,8.16 -0.5,0.66 -0.58,0.93 -0.89,1.58z"/>
   <path class="fil5" d="M67.76 97.32l-1.55 0c-5.43,0 -10.58,-1.85 -14.56,-4.12 -1.6,-0.92 -3.48,-2.31 -4.88,-3.55 -0.74,-0.65 -3.07,-3.12 -3.59,-3.83 -0.9,-1.2 -1.98,-2.63 -2.65,-3.95l-1.25 -2.5c-3.73,-8.29 -3.49,-17.83 0.55,-25.92 0.22,-0.45 0.44,-0.8 0.67,-1.25l1.44 -2.32c2.33,-3.52 6.03,-6.9 9.65,-9.03 3.91,-2.3 9.3,-4.16 14.62,-4.16 5.44,0 9.33,0.84 13.52,2.78 1.64,0.76 3.35,1.74 4.76,2.76 0.37,0.27 0.7,0.52 1.04,0.78 0.35,0.27 0.72,0.56 1.07,0.85l0.97 0.87c1.71,1.72 2.98,2.96 4.37,5.06 2.9,4.37 4.46,8.17 5.15,13.63l0.26 3.49c0.01,1.93 -0.37,4.84 -0.76,6.67 -0.7,3.28 -2.02,6.47 -3.77,9.32 -1.61,2.63 -2.93,4.05 -5.07,6.2 -2.55,2.57 -7.12,5.33 -10.5,6.45 -3.03,1 -5.98,1.77 -9.49,1.77zm-31.32 -31.69c0,4.04 -0.03,5.18 0.97,9.2 0.6,2.39 1.49,4.58 2.63,6.62 0.95,1.69 1.68,2.98 2.93,4.5 0.64,0.77 0.98,1.25 1.69,1.96l2.88 2.71c1.07,0.93 2.08,1.56 3.26,2.32 2.6,1.67 6.12,3.21 9.17,3.84 5.68,1.18 10.95,1.15 16.46,-0.68 1.65,-0.55 3.79,-1.42 5.29,-2.31 3.11,-1.85 4.96,-3.14 7.5,-5.79l0.9 -1.01c1.1,-1.38 2.68,-3.4 3.53,-4.99l1 -1.94c2.89,-6.45 3.75,-13.42 2.04,-20.36 -0.62,-2.51 -1.93,-5.85 -3.24,-8.03l-1.47 -2.28c-0.26,-0.38 -0.51,-0.7 -0.79,-1.05l-1.29 -1.55c-0.2,-0.2 -0.27,-0.26 -0.43,-0.48 -0.57,-0.75 -1.65,-1.63 -2.36,-2.31l-1.57 -1.28c-1.77,-1.32 -3.84,-2.7 -5.88,-3.54 -2.21,-0.9 -3.05,-1.33 -5.6,-1.92 -6.75,-1.57 -13,-0.92 -19.25,1.68 -0.81,0.34 -1.8,0.82 -2.51,1.25 -2.6,1.58 -4,2.28 -6.49,4.77 -3.42,3.42 -4.79,5.48 -6.93,9.93 -0.2,0.42 -0.39,0.91 -0.55,1.37 -0.97,2.78 -1.89,6.23 -1.89,9.37z"/>
  </g>
 </g>
</svg>
